<mxfile host="app.diagrams.net" agent="Mozilla/5.0 (Macintosh; Intel Mac OS X 10_15_7) AppleWebKit/605.1.15 (KHTML, like Gecko) Version/18.0.1 Safari/605.1.15" version="24.8.2">
  <diagram name="第 1 页" id="Mk2GAHoGygH_MXs1tss4">
    <mxGraphModel dx="1035" dy="632" grid="1" gridSize="10" guides="1" tooltips="1" connect="1" arrows="1" fold="1" page="1" pageScale="1" pageWidth="827" pageHeight="1169" math="0" shadow="0">
      <root>
        <mxCell id="0" />
        <mxCell id="1" parent="0" />
        <mxCell id="aRdFHBVmu3mGeVa-sbNf-5" value="" style="edgeStyle=orthogonalEdgeStyle;rounded=0;orthogonalLoop=1;jettySize=auto;html=1;sketch=1;curveFitting=1;jiggle=2;" edge="1" parent="1" source="aRdFHBVmu3mGeVa-sbNf-2" target="aRdFHBVmu3mGeVa-sbNf-3">
          <mxGeometry relative="1" as="geometry" />
        </mxCell>
        <mxCell id="aRdFHBVmu3mGeVa-sbNf-2" value="部门主管审批" style="strokeWidth=2;html=1;shape=mxgraph.flowchart.terminator;whiteSpace=wrap;fillColor=#dae8fc;strokeColor=#6c8ebf;sketch=1;curveFitting=1;jiggle=2;" vertex="1" parent="1">
          <mxGeometry x="120" y="220" width="100" height="60" as="geometry" />
        </mxCell>
        <mxCell id="aRdFHBVmu3mGeVa-sbNf-7" value="" style="edgeStyle=orthogonalEdgeStyle;rounded=0;orthogonalLoop=1;jettySize=auto;html=1;sketch=1;curveFitting=1;jiggle=2;" edge="1" parent="1" source="aRdFHBVmu3mGeVa-sbNf-3" target="aRdFHBVmu3mGeVa-sbNf-6">
          <mxGeometry relative="1" as="geometry" />
        </mxCell>
        <mxCell id="aRdFHBVmu3mGeVa-sbNf-3" value="部门经理审批" style="strokeWidth=2;html=1;shape=mxgraph.flowchart.terminator;whiteSpace=wrap;fillColor=#dae8fc;strokeColor=#6c8ebf;sketch=1;curveFitting=1;jiggle=2;" vertex="1" parent="1">
          <mxGeometry x="120" y="330" width="100" height="60" as="geometry" />
        </mxCell>
        <mxCell id="aRdFHBVmu3mGeVa-sbNf-13" value="" style="edgeStyle=orthogonalEdgeStyle;rounded=0;orthogonalLoop=1;jettySize=auto;html=1;sketch=1;curveFitting=1;jiggle=2;" edge="1" parent="1" source="aRdFHBVmu3mGeVa-sbNf-6" target="aRdFHBVmu3mGeVa-sbNf-12">
          <mxGeometry relative="1" as="geometry" />
        </mxCell>
        <mxCell id="aRdFHBVmu3mGeVa-sbNf-6" value="总经理审批" style="strokeWidth=2;html=1;shape=mxgraph.flowchart.terminator;whiteSpace=wrap;fillColor=#dae8fc;strokeColor=#6c8ebf;sketch=1;curveFitting=1;jiggle=2;" vertex="1" parent="1">
          <mxGeometry x="120" y="440" width="100" height="60" as="geometry" />
        </mxCell>
        <mxCell id="aRdFHBVmu3mGeVa-sbNf-11" value="" style="edgeStyle=orthogonalEdgeStyle;rounded=0;orthogonalLoop=1;jettySize=auto;html=1;sketch=1;curveFitting=1;jiggle=2;" edge="1" parent="1" source="aRdFHBVmu3mGeVa-sbNf-10" target="aRdFHBVmu3mGeVa-sbNf-2">
          <mxGeometry relative="1" as="geometry" />
        </mxCell>
        <mxCell id="aRdFHBVmu3mGeVa-sbNf-10" value="开始" style="strokeWidth=2;html=1;shape=mxgraph.flowchart.start_2;whiteSpace=wrap;fillColor=#d5e8d4;strokeColor=#82b366;sketch=1;curveFitting=1;jiggle=2;" vertex="1" parent="1">
          <mxGeometry x="135" y="100" width="70" height="70" as="geometry" />
        </mxCell>
        <mxCell id="aRdFHBVmu3mGeVa-sbNf-12" value="开始" style="strokeWidth=2;html=1;shape=mxgraph.flowchart.start_2;whiteSpace=wrap;fillColor=#f8cecc;strokeColor=#b85450;sketch=1;curveFitting=1;jiggle=2;" vertex="1" parent="1">
          <mxGeometry x="135" y="549.5" width="70" height="70" as="geometry" />
        </mxCell>
      </root>
    </mxGraphModel>
  </diagram>
</mxfile>
